<mxfile host="app.diagrams.net" modified="2020-10-13T08:24:48.102Z" agent="5.0 (Windows)" etag="2hl5RSMiq5DHcTsoQAbp" version="13.7.9" type="github">
  <diagram id="qKx0FwAk4wshuYWIRzAT" name="Page-1">
    <mxGraphModel dx="611" dy="762" grid="1" gridSize="10" guides="1" tooltips="1" connect="1" arrows="1" fold="1" page="1" pageScale="1" pageWidth="827" pageHeight="1169" math="0" shadow="0">
      <root>
        <mxCell id="0" />
        <mxCell id="1" parent="0" />
        <mxCell id="jzQFYOffvuQOTFeScSkk-3" value="" style="edgeStyle=orthogonalEdgeStyle;rounded=0;orthogonalLoop=1;jettySize=auto;html=1;" edge="1" parent="1" source="jzQFYOffvuQOTFeScSkk-1" target="jzQFYOffvuQOTFeScSkk-2">
          <mxGeometry relative="1" as="geometry" />
        </mxCell>
        <mxCell id="jzQFYOffvuQOTFeScSkk-1" value="&lt;div&gt;&lt;font style=&quot;font-size: 20px&quot;&gt;note&lt;/font&gt;&lt;/div&gt;&lt;div&gt;&lt;font style=&quot;font-size: 20px&quot;&gt;主表&lt;br&gt;&lt;/font&gt;&lt;/div&gt;" style="rounded=0;whiteSpace=wrap;html=1;" vertex="1" parent="1">
          <mxGeometry x="20" y="270" width="120" height="60" as="geometry" />
        </mxCell>
        <mxCell id="jzQFYOffvuQOTFeScSkk-2" value="&lt;div&gt;&lt;font style=&quot;font-size: 20px&quot;&gt;field_data_body&lt;/font&gt;&lt;/div&gt;&lt;div&gt;&lt;font style=&quot;font-size: 20px&quot;&gt;主表&lt;br&gt;&lt;/font&gt;&lt;/div&gt;" style="rounded=0;whiteSpace=wrap;html=1;" vertex="1" parent="1">
          <mxGeometry x="310" y="270" width="170" height="60" as="geometry" />
        </mxCell>
      </root>
    </mxGraphModel>
  </diagram>
</mxfile>
